<svg xmlns="http://www.w3.org/2000/svg" viewBox="0 0 900 580" fill="none">
  <defs>
    <linearGradient id="bdy" x1="0" y1="0" x2="0" y2="1">
      <stop offset="0%" stop-color="#E2E2E2"/>
      <stop offset="100%" stop-color="#C4C4C4"/>
    </linearGradient>
    <linearGradient id="bdy2" x1="0" y1="0" x2="0" y2="1">
      <stop offset="0%" stop-color="#D8D8D8"/>
      <stop offset="100%" stop-color="#BBBBBB"/>
    </linearGradient>
    <linearGradient id="bezel" x1="0" y1="0" x2="0" y2="1">
      <stop offset="0%" stop-color="#1E1E1E"/>
      <stop offset="100%" stop-color="#111111"/>
    </linearGradient>
    <linearGradient id="key" x1="0" y1="0" x2="0" y2="1">
      <stop offset="0%" stop-color="#383838"/>
      <stop offset="100%" stop-color="#222222"/>
    </linearGradient>
    <filter id="dropshadow" x="-10%" y="-5%" width="120%" height="130%">
      <feDropShadow dx="0" dy="16" stdDeviation="24" flood-color="#00000040"/>
    </filter>
    <clipPath id="screen-clip">
      <rect x="62" y="22" width="776" height="310" rx="5"/>
    </clipPath>
  </defs>

  <!-- body shadow -->
  <ellipse cx="450" cy="572" rx="360" ry="14" fill="#00000025"/>

  <!-- LID -->
  <rect x="20" y="10" width="860" height="340" rx="16" fill="url(#bdy)" filter="url(#dropshadow)"/>
  <!-- lid edge shine top -->
  <rect x="20" y="10" width="860" height="4" rx="2" fill="#F0F0F0"/>
  <!-- bezel (screen frame) -->
  <rect x="48" y="16" width="804" height="328" rx="10" fill="url(#bezel)"/>
  <!-- screen area — transparent, HTML overlays here -->
  <rect x="62" y="22" width="776" height="310" rx="5" fill="white" opacity="0"/>
  <!-- webcam -->
  <circle cx="450" cy="14" r="5" fill="#2A2A2A"/>
  <circle cx="450" cy="14" r="2.5" fill="#181818"/>

  <!-- HINGE -->
  <rect x="0" y="346" width="900" height="10" rx="2" fill="#AEAEAE"/>
  <rect x="0" y="346" width="900" height="2" rx="1" fill="#CCCCCC"/>

  <!-- BASE -->
  <rect x="0" y="354" width="900" height="210" rx="0 0 14 14" fill="url(#bdy2)"/>
  <rect x="0" y="558" width="900" height="6" rx="0 0 14 14" fill="#AAAAAA"/>

  <!-- KEY ROWS — proportional, refined -->
  <!-- Row FN (smallest) -->
  <g fill="url(#key)" opacity="0.9">
    <!-- fn row -->
    <rect x="34" y="368" width="30" height="8" rx="2"/>
    <rect x="68" y="368" width="46" height="8" rx="2"/>
    <rect x="118" y="368" width="46" height="8" rx="2"/>
    <rect x="168" y="368" width="46" height="8" rx="2"/>
    <rect x="218" y="368" width="46" height="8" rx="2"/>
    <rect x="278" y="368" width="46" height="8" rx="2"/>
    <rect x="328" y="368" width="46" height="8" rx="2"/>
    <rect x="378" y="368" width="46" height="8" rx="2"/>
    <rect x="428" y="368" width="46" height="8" rx="2"/>
    <rect x="488" y="368" width="46" height="8" rx="2"/>
    <rect x="538" y="368" width="46" height="8" rx="2"/>
    <rect x="588" y="368" width="46" height="8" rx="2"/>
    <rect x="638" y="368" width="46" height="8" rx="2"/>
    <rect x="718" y="368" width="46" height="8" rx="2"/>
    <rect x="768" y="368" width="46" height="8" rx="2"/>
    <rect x="818" y="368" width="46" height="8" rx="2"/>
  </g>

  <!-- Row 1 (numbers) -->
  <g fill="url(#key)">
    <rect x="34"  y="382" width="54" height="18" rx="3"/>
    <rect x="92"  y="382" width="54" height="18" rx="3"/>
    <rect x="150" y="382" width="54" height="18" rx="3"/>
    <rect x="208" y="382" width="54" height="18" rx="3"/>
    <rect x="266" y="382" width="54" height="18" rx="3"/>
    <rect x="324" y="382" width="54" height="18" rx="3"/>
    <rect x="382" y="382" width="54" height="18" rx="3"/>
    <rect x="440" y="382" width="54" height="18" rx="3"/>
    <rect x="498" y="382" width="54" height="18" rx="3"/>
    <rect x="556" y="382" width="54" height="18" rx="3"/>
    <rect x="614" y="382" width="54" height="18" rx="3"/>
    <rect x="672" y="382" width="54" height="18" rx="3"/>
    <rect x="730" y="382" width="54" height="18" rx="3"/>
    <rect x="788" y="382" width="78" height="18" rx="3"/>
  </g>

  <!-- Row 2 (QWERTY) -->
  <g fill="url(#key)">
    <rect x="34"  y="406" width="76" height="18" rx="3"/>
    <rect x="114" y="406" width="54" height="18" rx="3"/>
    <rect x="172" y="406" width="54" height="18" rx="3"/>
    <rect x="230" y="406" width="54" height="18" rx="3"/>
    <rect x="288" y="406" width="54" height="18" rx="3"/>
    <rect x="346" y="406" width="54" height="18" rx="3"/>
    <rect x="404" y="406" width="54" height="18" rx="3"/>
    <rect x="462" y="406" width="54" height="18" rx="3"/>
    <rect x="520" y="406" width="54" height="18" rx="3"/>
    <rect x="578" y="406" width="54" height="18" rx="3"/>
    <rect x="636" y="406" width="54" height="18" rx="3"/>
    <rect x="694" y="406" width="54" height="18" rx="3"/>
    <rect x="752" y="406" width="114" height="18" rx="3"/>
  </g>

  <!-- Row 3 (ASDF) -->
  <g fill="url(#key)">
    <rect x="34"  y="430" width="86" height="18" rx="3"/>
    <rect x="124" y="430" width="54" height="18" rx="3"/>
    <rect x="182" y="430" width="54" height="18" rx="3"/>
    <rect x="240" y="430" width="54" height="18" rx="3"/>
    <rect x="298" y="430" width="54" height="18" rx="3"/>
    <rect x="356" y="430" width="54" height="18" rx="3"/>
    <rect x="414" y="430" width="54" height="18" rx="3"/>
    <rect x="472" y="430" width="54" height="18" rx="3"/>
    <rect x="530" y="430" width="54" height="18" rx="3"/>
    <rect x="588" y="430" width="54" height="18" rx="3"/>
    <rect x="646" y="430" width="54" height="18" rx="3"/>
    <rect x="704" y="430" width="162" height="18" rx="3"/>
  </g>

  <!-- Row 4 (ZXCV) -->
  <g fill="url(#key)">
    <rect x="34"  y="454" width="106" height="18" rx="3"/>
    <rect x="144" y="454" width="54"  height="18" rx="3"/>
    <rect x="202" y="454" width="54"  height="18" rx="3"/>
    <rect x="260" y="454" width="54"  height="18" rx="3"/>
    <rect x="318" y="454" width="54"  height="18" rx="3"/>
    <rect x="376" y="454" width="54"  height="18" rx="3"/>
    <rect x="434" y="454" width="54"  height="18" rx="3"/>
    <rect x="492" y="454" width="54"  height="18" rx="3"/>
    <rect x="550" y="454" width="54"  height="18" rx="3"/>
    <rect x="608" y="454" width="54"  height="18" rx="3"/>
    <rect x="666" y="454" width="54"  height="18" rx="3"/>
    <rect x="724" y="454" width="142" height="18" rx="3"/>
  </g>

  <!-- Row 5 (space + arrows) -->
  <g fill="url(#key)">
    <rect x="34"  y="478" width="76" height="18" rx="3"/>
    <rect x="114" y="478" width="54" height="18" rx="3"/>
    <rect x="172" y="478" width="54" height="18" rx="3"/>
    <rect x="242" y="478" width="366" height="18" rx="3"/>
    <rect x="622" y="478" width="54" height="18" rx="3"/>
    <rect x="680" y="478" width="54" height="18" rx="3"/>
    <rect x="738" y="478" width="54" height="8"  rx="2"/>
    <rect x="796" y="488" width="54" height="8"  rx="2"/>
    <rect x="738" y="488" width="54" height="8"  rx="2"/>
  </g>

  <!-- key highlights (top edge) -->
  <g fill="white" opacity="0.07">
    <rect x="34" y="382" width="54" height="3" rx="1"/>
    <rect x="92" y="382" width="54" height="3" rx="1"/>
    <rect x="150" y="382" width="54" height="3" rx="1"/>
    <rect x="208" y="382" width="54" height="3" rx="1"/>
    <rect x="266" y="382" width="54" height="3" rx="1"/>
    <rect x="324" y="382" width="54" height="3" rx="1"/>
    <rect x="382" y="382" width="54" height="3" rx="1"/>
    <rect x="440" y="382" width="54" height="3" rx="1"/>
    <rect x="498" y="382" width="54" height="3" rx="1"/>
    <rect x="556" y="382" width="54" height="3" rx="1"/>
  </g>

  <!-- TRACKPAD -->
  <rect x="310" y="504" width="280" height="56" rx="10" fill="#CBCBCB" stroke="#B8B8B8" stroke-width="1"/>
  <rect x="312" y="506" width="276" height="4" rx="2" fill="#DEDEDE"/>
</svg>
